# xmcd CD database file
#
# Track frame offsets:
#	150
#	23288
#	53684
#	72989
#	96945
#	118557
#	140102
#	157991
#	184528
#
# Disc length: 2652 seconds
#
# Revision: 0
# Processed by: cddbd v1.5.2PL0 Copyright (c) Steve Scherf et al.
# Submitted via: CDex 1.70beta2
#
DISCID=6e0a5a09
DTITLE=Sunset Blues Band - Let Me Try
DYEAR=1994
DGENRE=Blues
TTITLE0=Walking Man
TTITLE1=My friend is here
TTITLE2=All I can say
TTITLE3=I've been trying
TTITLE4=Baby it's too long
TTITLE5=One and one ain't two no moore
TTITLE6=Let me try
TTITLE7=Father and son
TTITLE8=Funky
EXTD=YEAR: 1994
EXTT0=
EXTT1=
EXTT2=
EXTT3=
EXTT4=
EXTT5=
EXTT6=
EXTT7=
EXTT8=
PLAYORDER=
